<svg width="24" height="24" viewBox="0 0 24 24" fill="none" xmlns="http://www.w3.org/2000/svg">
<path d="M16.4667 16.5H16.3516C16.2158 15.8438 15.9767 15.2402 15.6344 14.6895C15.292 14.1387 14.8759 13.6641 14.3859 13.2656C13.896 12.8672 13.3441 12.5566 12.7302 12.334C12.1163 12.1113 11.4729 12 10.8 12C10.2806 12 9.77882 12.0674 9.29479 12.2021C8.81076 12.3369 8.3592 12.5244 7.9401 12.7646C7.52101 13.0049 7.14028 13.2979 6.79792 13.6436C6.45556 13.9893 6.16042 14.3701 5.9125 14.7861C5.66458 15.2021 5.47274 15.6504 5.33698 16.1309C5.20122 16.6113 5.13333 17.1094 5.13333 17.625H4C4 16.9219 4.1033 16.2451 4.3099 15.5947C4.51649 14.9443 4.81458 14.3438 5.20417 13.793C5.59375 13.2422 6.05417 12.7529 6.58542 12.3252C7.11667 11.8975 7.71875 11.5605 8.39167 11.3145C7.72465 10.8809 7.20521 10.3359 6.83333 9.67969C6.46146 9.02344 6.27257 8.29688 6.26667 7.5C6.26667 6.87891 6.38472 6.2959 6.62083 5.75098C6.85694 5.20605 7.17865 4.72852 7.58594 4.31836C7.99323 3.9082 8.47431 3.58594 9.02917 3.35156C9.58403 3.11719 10.1743 3 10.8 3C11.4257 3 12.013 3.11719 12.562 3.35156C13.1109 3.58594 13.592 3.90527 14.0052 4.30957C14.4184 4.71387 14.7431 5.19141 14.9792 5.74219C15.2153 6.29297 15.3333 6.87891 15.3333 7.5C15.3333 7.88672 15.2861 8.26465 15.1917 8.63379C15.0972 9.00293 14.9556 9.35156 14.7667 9.67969C14.5778 10.0078 14.3564 10.3096 14.1026 10.585C13.8488 10.8604 13.5507 11.1035 13.2083 11.3145C13.8694 11.5664 14.4774 11.9121 15.0323 12.3516C15.5872 12.791 16.0653 13.3066 16.4667 13.8984V16.5ZM7.4 7.5C7.4 7.96875 7.48854 8.40527 7.66562 8.80957C7.84271 9.21387 8.08472 9.57129 8.39167 9.88184C8.69861 10.1924 9.05868 10.4355 9.47188 10.6113C9.88507 10.7871 10.3278 10.875 10.8 10.875C11.2663 10.875 11.7061 10.7871 12.1193 10.6113C12.5325 10.4355 12.8925 10.1953 13.1995 9.89062C13.5064 9.58594 13.7514 9.22852 13.9344 8.81836C14.1174 8.4082 14.2059 7.96875 14.2 7.5C14.2 7.03711 14.1115 6.60059 13.9344 6.19043C13.7573 5.78027 13.5153 5.42285 13.2083 5.11816C12.9014 4.81348 12.5384 4.57031 12.1193 4.38867C11.7002 4.20703 11.2604 4.11914 10.8 4.125C10.3278 4.125 9.88802 4.21289 9.48073 4.38867C9.07344 4.56445 8.71337 4.80469 8.40052 5.10938C8.08767 5.41406 7.84271 5.77441 7.66562 6.19043C7.48854 6.60645 7.4 7.04297 7.4 7.5ZM18.7333 17.625H21V18.75H18.7333V21H17.6V18.75H15.3333V17.625H17.6V15.375H18.7333V17.625Z" fill="#4DB131"/>
</svg>
