<svg width="24" height="24" viewBox="0 0 24 24" fill="none" xmlns="http://www.w3.org/2000/svg">
<path fill-rule="evenodd" clip-rule="evenodd" d="M11.03 3.97032C11.1705 4.11094 11.2494 4.30157 11.2494 4.50032C11.2494 4.69907 11.1705 4.88969 11.03 5.03032L4.81001 11.2503H21C21.1989 11.2503 21.3897 11.3293 21.5303 11.47C21.671 11.6106 21.75 11.8014 21.75 12.0003C21.75 12.1992 21.671 12.39 21.5303 12.5306C21.3897 12.6713 21.1989 12.7503 21 12.7503H4.81001L11.03 18.9703C11.1037 19.039 11.1628 19.1218 11.2038 19.2138C11.2448 19.3058 11.2668 19.4051 11.2686 19.5058C11.2704 19.6065 11.2519 19.7065 11.2141 19.7999C11.1764 19.8933 11.1203 19.9781 11.049 20.0494C10.9778 20.1206 10.893 20.1767 10.7996 20.2144C10.7062 20.2522 10.6062 20.2707 10.5055 20.2689C10.4048 20.2671 10.3055 20.2451 10.2135 20.2041C10.1215 20.1631 10.0387 20.104 9.97001 20.0303L2.47001 12.5303C2.32956 12.3897 2.25067 12.1991 2.25067 12.0003C2.25067 11.8016 2.32956 11.6109 2.47001 11.4703L9.97001 3.97032C10.1106 3.82987 10.3013 3.75098 10.5 3.75098C10.6988 3.75098 10.8894 3.82987 11.03 3.97032Z" fill="#253240"/>
</svg>
