<svg width="8" height="8" viewBox="0 0 8 8" fill="none" xmlns="http://www.w3.org/2000/svg">
<path d="M2.68015 5.04003C2.76015 5.16003 2.88015 5.20003 3.00015 5.20003C3.12015 5.20003 3.24015 5.16003 3.32015 5.04003L5.12015 2.64003C5.24015 2.48003 5.20015 2.20003 5.04015 2.08003C4.88015 1.96003 4.60015 2.00003 4.48015 2.16003L3.00015 4.12003L2.72015 3.76003C2.60015 3.60003 2.32015 3.56003 2.16015 3.68003C2.00015 3.80003 1.96015 4.08003 2.08015 4.24003L2.68015 5.04003Z" fill="white"/>
<path d="M3.6 7.2C5.6 7.2 7.2 5.6 7.2 3.6C7.2 1.6 5.6 0 3.6 0C1.6 0 0 1.6 0 3.6C0 5.6 1.6 7.2 3.6 7.2ZM3.6 0.8C5.16 0.8 6.4 2.04 6.4 3.6C6.4 5.16 5.16 6.4 3.6 6.4C2.04 6.4 0.8 5.16 0.8 3.6C0.8 2.04 2.04 0.8 3.6 0.8Z" fill="white"/>
</svg>
