<svg width="10" height="10" viewBox="0 0 10 10" fill="none" xmlns="http://www.w3.org/2000/svg">
<path d="M2.91669 6.25H3.75002C3.75002 6.7 4.32085 7.08333 5.00002 7.08333C5.67919 7.08333 6.25002 6.7 6.25002 6.25C6.25002 5.79167 5.81669 5.625 4.90002 5.40417C4.01669 5.18333 2.91669 4.90833 2.91669 3.75C2.91669 3.00417 3.52919 2.37083 4.37502 2.15833V1.25H5.62502V2.15833C6.47085 2.37083 7.08335 3.00417 7.08335 3.75H6.25002C6.25002 3.3 5.67919 2.91667 5.00002 2.91667C4.32085 2.91667 3.75002 3.3 3.75002 3.75C3.75002 4.20833 4.18335 4.375 5.10002 4.59583C5.98335 4.81667 7.08335 5.09167 7.08335 6.25C7.08335 6.99583 6.47085 7.62917 5.62502 7.84167V8.75H4.37502V7.84167C3.52919 7.62917 2.91669 6.99583 2.91669 6.25Z" fill="white"/>
</svg>
