<svg width="20" height="20" viewBox="0 0 20 20" fill="none" xmlns="http://www.w3.org/2000/svg">
<path d="M17.3575 10.7175C17.5 10.3733 17.5 9.93583 17.5 9.0625C17.5 8.18917 17.5 7.75167 17.3575 7.4075C17.2633 7.17994 17.1251 6.97318 16.951 6.79902C16.7768 6.62487 16.5701 6.48673 16.3425 6.3925C15.9983 6.25 15.5608 6.25 14.6875 6.25H9.25C8.2 6.25 7.675 6.25 7.27417 6.45417C6.92105 6.63398 6.63398 6.92105 6.45417 7.27417C6.25 7.67417 6.25 8.19917 6.25 9.25V14.6875C6.25 15.5608 6.25 15.9983 6.3925 16.3425C6.58333 16.8017 6.94833 17.1675 7.4075 17.3575C7.75167 17.5 8.18917 17.5 9.0625 17.5C9.93583 17.5 10.3733 17.5 10.7175 17.3575M17.3575 10.7175C17.2633 10.9451 17.1251 11.1518 16.951 11.326C16.7768 11.5001 16.5701 11.6383 16.3425 11.7325C15.9983 11.875 15.5608 11.875 14.6875 11.875C13.8142 11.875 13.3767 11.875 13.0325 12.0175C12.8049 12.1117 12.5982 12.2499 12.424 12.424C12.2499 12.5982 12.1117 12.8049 12.0175 13.0325C11.875 13.3767 11.875 13.8142 11.875 14.6875C11.875 15.5608 11.875 15.9983 11.7325 16.3425C11.6383 16.5701 11.5001 16.7768 11.326 16.951C11.1518 17.1251 10.9451 17.2633 10.7175 17.3575M17.3575 10.7175C16.9092 12.2632 16.0846 13.6737 14.9575 14.8226C13.8304 15.9715 12.436 16.823 10.8992 17.3008L10.7175 17.3575M13.75 6.25V5.5C13.75 4.45 13.75 3.925 13.5458 3.52417C13.3662 3.17118 13.0795 2.88412 12.7267 2.70417C12.325 2.5 11.8 2.5 10.75 2.5H5.5C4.45 2.5 3.925 2.5 3.52417 2.70417C3.17105 2.88398 2.88398 3.17105 2.70417 3.52417C2.5 3.92417 2.5 4.44917 2.5 5.5V10.75C2.5 11.8 2.5 12.325 2.70417 12.7258C2.88417 13.0792 3.17083 13.3658 3.52417 13.5458C3.92417 13.75 4.45 13.75 5.50083 13.75H6.25" stroke="white" stroke-width="1.5" stroke-linecap="round" stroke-linejoin="round"/>
</svg>
