<svg width="24" height="24" viewBox="0 0 24 24" fill="none" xmlns="http://www.w3.org/2000/svg">
<path d="M9.70001 15.6001C9.90001 15.9001 10.2 16.0001 10.5 16.0001C10.8 16.0001 11.1 15.9001 11.3 15.6001L15.8 9.60007C16.1 9.20007 16 8.50007 15.6 8.20007C15.2 7.90007 14.5 8.00007 14.2 8.40007L10.5 13.3001L9.80001 12.4001C9.50001 12.0001 8.80001 11.9001 8.40001 12.2001C8.00001 12.5001 7.90001 13.2001 8.20001 13.6001L9.70001 15.6001Z" fill="white"/>
<path d="M12 21C17 21 21 17 21 12C21 7 17 3 12 3C7 3 3 7 3 12C3 17 7 21 12 21ZM12 5C15.9 5 19 8.1 19 12C19 15.9 15.9 19 12 19C8.1 19 5 15.9 5 12C5 8.1 8.1 5 12 5Z" fill="white"/>
</svg>
