<svg width="18" height="18" viewBox="0 0 18 18" fill="none" xmlns="http://www.w3.org/2000/svg">
<path d="M12.6049 3.35407L13.866 2.09222C14.1289 1.82933 14.4855 1.68164 14.8572 1.68164C15.229 1.68164 15.5856 1.82933 15.8485 2.09222C16.1114 2.35511 16.2591 2.71167 16.2591 3.08346C16.2591 3.45524 16.1114 3.8118 15.8485 4.07469L7.91038 12.0128C7.51517 12.4078 7.02781 12.6981 6.4923 12.8575L4.48516 13.4555L5.08319 11.4484C5.24263 10.9129 5.53294 10.4255 5.92791 10.0303L12.6049 3.35407ZM12.6049 3.35407L14.5769 5.32607M13.4556 10.4654V14.0162C13.4556 14.4623 13.2784 14.8901 12.963 15.2055C12.6475 15.5209 12.2197 15.6981 11.7736 15.6981H3.92451C3.47843 15.6981 3.05062 15.5209 2.73519 15.2055C2.41976 14.8901 2.24255 14.4623 2.24255 14.0162V6.16705C2.24255 5.72096 2.41976 5.29315 2.73519 4.97772C3.05062 4.66229 3.47843 4.48509 3.92451 4.48509H7.47531" stroke="white" stroke-width="1.5" stroke-linecap="round" stroke-linejoin="round"/>
</svg>
