<svg width="24" height="24" viewBox="0 0 24 24" fill="none" xmlns="http://www.w3.org/2000/svg">
<path d="M21 7V18.6C21 19.93 19.93 21 18.6 21H5.4C4.07 21 3 19.93 3 18.6V7M8 11H16M2.6 3H21.4C21.8243 3 22.2313 3.16857 22.5314 3.46863C22.8314 3.76869 23 4.17565 23 4.6V5.4C23 5.61012 22.9586 5.81817 22.8782 6.01229C22.7978 6.20641 22.6799 6.3828 22.5314 6.53137C22.3828 6.67994 22.2064 6.7978 22.0123 6.87821C21.8182 6.95861 21.6101 7 21.4 7H2.6C2.17565 7 1.76869 6.83143 1.46863 6.53137C1.16857 6.23131 1 5.82435 1 5.4V4.6C1 4.38988 1.04139 4.18183 1.12179 3.98771C1.2022 3.79359 1.32006 3.6172 1.46863 3.46863C1.76869 3.16857 2.17565 3 2.6 3Z" stroke="#797979" stroke-width="1.5" stroke-miterlimit="10" stroke-linecap="round" stroke-linejoin="round"/>
</svg>
