<svg width="20" height="20" viewBox="0 0 20 20" fill="none" xmlns="http://www.w3.org/2000/svg">
<path d="M10 8.125C8.96625 8.125 8.125 8.96625 8.125 10C8.125 11.0338 8.96625 11.875 10 11.875C11.0338 11.875 11.875 11.0338 11.875 10C11.875 8.96625 11.0338 8.125 10 8.125Z" fill="#4F4E4E"/>
<path d="M3.75 8.125C2.71625 8.125 1.875 8.96625 1.875 10C1.875 11.0338 2.71625 11.875 3.75 11.875C4.78375 11.875 5.625 11.0338 5.625 10C5.625 8.96625 4.78375 8.125 3.75 8.125Z" fill="#4F4E4E"/>
<path d="M16.25 8.125C15.2162 8.125 14.375 8.96625 14.375 10C14.375 11.0338 15.2162 11.875 16.25 11.875C17.2838 11.875 18.125 11.0338 18.125 10C18.125 8.96625 17.2838 8.125 16.25 8.125Z" fill="#4F4E4E"/>
</svg>
