<svg width="22" height="24" viewBox="0 0 22 24" fill="none" xmlns="http://www.w3.org/2000/svg">
<path d="M17.7872 9.19861V8.4454C17.7872 4.31185 14.5564 0.961426 10.5757 0.961426C6.59489 0.961426 3.36412 4.31185 3.36412 8.4454V9.19861C3.3654 10.0977 3.10882 10.9783 2.6248 11.736L1.44104 13.5789C0.360913 15.2616 1.1857 17.549 3.06497 18.0811C7.97554 19.4717 13.1758 19.4717 18.0863 18.0811C19.9656 17.549 20.7904 15.2616 19.7103 13.58L18.5265 11.7371C18.0421 10.9795 17.7852 10.0989 17.7861 9.19968L17.7872 9.19861Z" stroke="#032D5C" stroke-width="1.92308"/>
<path d="M5.76794 19.1238C6.46773 20.9913 8.35555 22.3289 10.5756 22.3289C12.7957 22.3289 14.6835 20.9913 15.3833 19.1238" stroke="#032D5C" stroke-width="1.92308" stroke-linecap="round"/>
</svg>
