<svg width="20" height="20" viewBox="0 0 20 20" fill="none" xmlns="http://www.w3.org/2000/svg">
<path d="M13.125 5C13.125 5.8288 12.7957 6.62366 12.2097 7.20971C11.6236 7.79576 10.8288 8.125 9.99999 8.125C9.17119 8.125 8.37633 7.79576 7.79028 7.20971C7.20423 6.62366 6.87499 5.8288 6.87499 5C6.87499 4.1712 7.20423 3.37634 7.79028 2.79029C8.37633 2.20424 9.17119 1.875 9.99999 1.875C10.8288 1.875 11.6236 2.20424 12.2097 2.79029C12.7957 3.37634 13.125 4.1712 13.125 5ZM3.75082 16.765C3.7776 15.1253 4.44777 13.5618 5.6168 12.4117C6.78584 11.2616 8.36006 10.6171 9.99999 10.6171C11.6399 10.6171 13.2141 11.2616 14.3832 12.4117C15.5522 13.5618 16.2224 15.1253 16.2492 16.765C14.2886 17.664 12.1568 18.1279 9.99999 18.125C7.76999 18.125 5.65332 17.6383 3.75082 16.765Z" stroke="#013F80" stroke-width="1.5" stroke-linecap="round" stroke-linejoin="round"/>
</svg>
