<svg width="24" height="24" viewBox="0 0 24 24" fill="none" xmlns="http://www.w3.org/2000/svg">
<path d="M12 2.75C17.1089 2.75 21.25 6.89114 21.25 12V12.001C21.2514 13.2621 20.9942 14.5102 20.4941 15.668C19.9941 16.8258 19.2619 17.8688 18.3428 18.7324L18.3418 18.7334C16.7349 20.2513 14.6398 21.138 12.4414 21.2402L12.001 21.25H11.999C9.64139 21.2531 7.37208 20.3524 5.6582 18.7334L5.65723 18.7324C4.73813 17.8688 4.0059 16.8258 3.50586 15.668C3.00584 14.5102 2.7486 13.2621 2.75 12.001V12C2.75 6.89114 6.89115 2.75 12 2.75ZM12 14.5C10.8006 14.4989 9.61633 14.7679 8.53516 15.2871C7.45387 15.8064 6.50384 16.563 5.75488 17.5L5.47656 17.8477L5.79004 18.1641C6.60252 18.9847 7.5697 19.6362 8.63574 20.0801C9.70141 20.5238 10.8447 20.7503 11.999 20.749V20.75C13.1539 20.7515 14.2981 20.524 15.3643 20.0801C16.4303 19.6362 17.3975 18.9846 18.21 18.1641L18.5234 17.8477L18.2451 17.5C17.4962 16.563 16.5461 15.8064 15.4648 15.2871C14.3837 14.7679 13.1994 14.4989 12 14.5ZM12 4.75C10.8728 4.75 9.79215 5.19809 8.99512 5.99512C8.19809 6.79215 7.75 7.87283 7.75 9C7.75 10.1272 8.19809 11.2079 8.99512 12.0049C9.79215 12.8019 10.8728 13.25 12 13.25C13.1272 13.25 14.2079 12.8019 15.0049 12.0049C15.8019 11.2079 16.25 10.1272 16.25 9C16.25 7.87283 15.8019 6.79215 15.0049 5.99512C14.2079 5.19809 13.1272 4.75 12 4.75Z" stroke="#797979"/>
</svg>
