<svg width="20" height="20" viewBox="0 0 20 20" fill="none" xmlns="http://www.w3.org/2000/svg">
<path d="M10 2.375C14.2114 2.375 17.625 5.78864 17.625 10C17.625 14.2114 14.2114 17.625 10 17.625C5.78864 17.625 2.375 14.2114 2.375 10C2.375 5.78864 5.78864 2.375 10 2.375ZM11.3867 10.3418C11.7495 8.89164 10.2435 7.68295 8.90625 8.35156L8.90039 8.35449L8.89355 8.35742L8.85938 8.37598C8.73384 8.43706 8.62032 8.52041 8.52539 8.62305C8.42241 8.73445 8.343 8.86592 8.29199 9.00879C8.24102 9.15168 8.21934 9.30365 8.22852 9.45508C8.23774 9.60661 8.27773 9.75488 8.3457 9.89062C8.41367 10.0264 8.50823 10.147 8.62402 10.2451C8.73983 10.3433 8.87449 10.4171 9.01953 10.4619C9.02496 10.4636 9.03069 10.4642 9.03613 10.4658L8.61328 12.1582C8.25035 13.6088 9.75712 14.8176 11.0947 14.1494L11.1035 14.1445L11.1113 14.1396L11.1455 14.1211L11.1494 14.1191C11.401 13.9774 11.5883 13.7439 11.6729 13.4678C11.7573 13.1917 11.7326 12.8939 11.6035 12.6357C11.4744 12.3776 11.251 12.1791 10.9795 12.0811C10.9708 12.0779 10.9618 12.0752 10.9531 12.0723L11.3867 10.3418ZM10 5.75C9.70163 5.75 9.41508 5.86812 9.2041 6.0791C8.99312 6.29008 8.875 6.57663 8.875 6.875C8.875 7.17337 8.99312 7.45992 9.2041 7.6709C9.41508 7.88188 9.70163 8 10 8C10.2984 8 10.5849 7.88188 10.7959 7.6709C11.0069 7.45992 11.125 7.17337 11.125 6.875C11.125 6.57663 11.0069 6.29008 10.7959 6.0791C10.5849 5.86812 10.2984 5.75 10 5.75Z" stroke="#024184"/>
</svg>
