<svg width="20" height="20" viewBox="0 0 20 20" fill="none" xmlns="http://www.w3.org/2000/svg">
<path d="M18.3332 4.317L8.82484 13.8337L5.2915 10.3003L6.4665 9.12533L8.82484 11.4837L17.1582 3.15033L18.3332 4.317ZM16.4915 8.517C16.5998 8.992 16.6665 9.492 16.6665 10.0003C16.6665 13.6837 13.6832 16.667 9.99984 16.667C6.3165 16.667 3.33317 13.6837 3.33317 10.0003C3.33317 6.317 6.3165 3.33367 9.99984 3.33367C11.3165 3.33367 12.5332 3.717 13.5665 4.37533L14.7665 3.17533C13.3719 2.19162 11.7065 1.66464 9.99984 1.667C5.39984 1.667 1.6665 5.40033 1.6665 10.0003C1.6665 14.6003 5.39984 18.3337 9.99984 18.3337C14.5998 18.3337 18.3332 14.6003 18.3332 10.0003C18.3332 9.00867 18.1498 8.05867 17.8332 7.17533L16.4915 8.517Z" fill="#797979"/>
</svg>
