<svg width="11" height="11" viewBox="0 0 11 11" fill="none" xmlns="http://www.w3.org/2000/svg">
<g clip-path="url(#clip0_175_510)">
<path d="M7.16121 9.26769C6.57847 9.26769 6.08182 9.06226 5.67124 8.6514C5.26066 8.24053 5.05522 7.74388 5.05494 7.16143C5.05466 6.57897 5.26009 6.08232 5.67124 5.67146C6.08238 5.26059 6.57903 5.05516 7.16121 5.05516C7.74338 5.05516 8.24017 5.26059 8.6516 5.67146C9.06302 6.08232 9.26831 6.57897 9.26747 7.16143C9.26663 7.74388 9.06119 8.24067 8.65118 8.65182C8.24116 9.06296 7.7445 9.26825 7.16121 9.26769ZM7.37183 7.07717V6.10829C7.37183 6.05213 7.35077 6.00298 7.30864 5.96086C7.26652 5.91873 7.21737 5.89767 7.16121 5.89767C7.10504 5.89767 7.05589 5.91873 7.01377 5.96086C6.97164 6.00298 6.95058 6.05213 6.95058 6.10829V7.06664C6.95058 7.12281 6.96111 7.17729 6.98217 7.23009C7.00324 7.28289 7.03483 7.33021 7.07696 7.37205L7.71937 8.01446C7.76149 8.05659 7.81064 8.07765 7.8668 8.07765C7.92297 8.07765 7.97212 8.05659 8.01424 8.01446C8.05637 7.97234 8.07743 7.92319 8.07743 7.86702C8.07743 7.81086 8.05637 7.76171 8.01424 7.71959L7.37183 7.07717ZM2.10618 8.84644C1.87449 8.84644 1.67622 8.76401 1.51137 8.59916C1.34652 8.43431 1.26395 8.2359 1.26367 8.00393V2.1064C1.26367 1.87471 1.34624 1.67644 1.51137 1.51159C1.6765 1.34674 1.87477 1.26417 2.10618 1.26389H3.86491C3.94214 1.01816 4.09308 0.816381 4.31775 0.658552C4.54242 0.500723 4.78815 0.421668 5.05494 0.421387C5.33578 0.421387 5.58685 0.500442 5.80814 0.658552C6.02944 0.816662 6.17856 1.01844 6.25551 1.26389H8.00371C8.2354 1.26389 8.43381 1.34646 8.59894 1.51159C8.76407 1.67672 8.8465 1.87499 8.84622 2.1064V3.79141C8.84622 3.91076 8.80578 4.01088 8.7249 4.09176C8.64401 4.17264 8.54404 4.21294 8.42496 4.21266C8.30589 4.21238 8.20591 4.17194 8.12503 4.09134C8.04415 4.01074 8.00371 3.91076 8.00371 3.79141V2.1064H7.16121V2.9489C7.16121 3.06826 7.12077 3.16837 7.03989 3.24925C6.959 3.33013 6.85903 3.37043 6.73995 3.37015H3.36993C3.25058 3.37015 3.1506 3.32971 3.07 3.24883C2.9894 3.16795 2.94896 3.06798 2.94868 2.9489V2.1064H2.10618V8.00393H4.00181C4.12117 8.00393 4.22129 8.04437 4.30217 8.12525C4.38305 8.20613 4.42335 8.30611 4.42307 8.42518C4.42278 8.54426 4.38234 8.64437 4.30174 8.72554C4.22114 8.8067 4.12117 8.847 4.00181 8.84644H2.10618ZM5.05494 2.1064C5.1743 2.1064 5.27442 2.06596 5.3553 1.98508C5.43618 1.9042 5.47648 1.80422 5.4762 1.68514C5.47592 1.56607 5.43547 1.46609 5.35488 1.38521C5.27428 1.30433 5.1743 1.26389 5.05494 1.26389C4.93559 1.26389 4.83561 1.30433 4.75501 1.38521C4.67441 1.46609 4.63397 1.56607 4.63369 1.68514C4.63341 1.80422 4.67385 1.90434 4.75501 1.9855C4.83617 2.06666 4.93615 2.10696 5.05494 2.1064Z" fill="#FEF1E7"/>
</g>
<defs>
<clipPath id="clip0_175_510">
<rect width="10.1101" height="10.1101" fill="white"/>
</clipPath>
</defs>
</svg>
