<svg width="20" height="20" viewBox="0 0 20 20" fill="none" xmlns="http://www.w3.org/2000/svg">
<path d="M11.3672 0.742148C11.3934 0.749254 11.4196 0.756361 11.4466 0.763682C12.7108 1.11646 13.77 1.99418 14.4185 3.12254C15.0685 4.29323 15.2513 5.69719 14.8828 6.99215C14.494 8.27628 13.6426 9.39501 12.4579 10.0444C11.7 10.4394 10.9029 10.6256 10.0527 10.6604C8.18778 10.7396 6.55075 11.3506 5.19531 12.6562C5.1512 12.6966 5.1512 12.6966 5.1062 12.7378C3.98515 13.7959 3.2453 15.4787 3.19382 17.0156C3.19264 17.0941 3.19168 17.1725 3.19092 17.2509C3.18979 17.2904 3.18865 17.3299 3.18749 17.3706C3.18545 17.6094 3.19867 17.7486 3.35938 17.9296C3.56628 18.0835 3.76644 18.0908 4.01808 18.091C4.0578 18.0912 4.05781 18.0912 4.09833 18.0913C4.18679 18.0915 4.27524 18.0915 4.3637 18.0914C4.42723 18.0916 4.49077 18.0917 4.5543 18.0919C4.69099 18.0922 4.82768 18.0924 4.96437 18.0925C5.18055 18.0927 5.39673 18.0934 5.61291 18.0941C5.68697 18.0943 5.76102 18.0946 5.83507 18.0948C5.89069 18.095 5.89069 18.095 5.94743 18.0952C6.45062 18.0969 6.95381 18.0981 7.457 18.0986C7.79659 18.099 8.13617 18.0998 8.47576 18.1013C8.6554 18.1021 8.83504 18.1026 9.01469 18.1024C9.18363 18.1022 9.35255 18.1028 9.52149 18.1038C9.58344 18.1041 9.64539 18.1041 9.70734 18.1038C9.79202 18.1035 9.87665 18.1041 9.96133 18.1049C10.0087 18.105 10.056 18.1051 10.1048 18.1052C10.3048 18.1357 10.4247 18.2348 10.5615 18.3789C10.6552 18.5806 10.6544 18.7656 10.625 18.9843C10.5348 19.1787 10.4189 19.2704 10.2344 19.375C10.0995 19.3946 10.0995 19.3946 9.94835 19.3948C9.90643 19.3952 9.90643 19.3952 9.86367 19.3955C9.77047 19.3962 9.67731 19.3957 9.5841 19.3952C9.5171 19.3954 9.45009 19.3957 9.38308 19.396C9.20131 19.3967 9.01956 19.3964 8.83779 19.3959C8.6472 19.3956 8.45661 19.3959 8.26602 19.3962C7.94572 19.3965 7.62543 19.3961 7.30513 19.3953C6.93568 19.3945 6.56625 19.3948 6.1968 19.3956C5.87905 19.3963 5.5613 19.3964 5.24355 19.396C5.05403 19.3958 4.86452 19.3957 4.675 19.3963C4.49653 19.3967 4.31808 19.3964 4.13962 19.3955C4.07443 19.3953 4.00924 19.3953 3.94406 19.3957C3.30328 19.3988 2.83106 19.2589 2.35352 18.8159C1.94506 18.3843 1.85396 17.9082 1.86035 17.3315C1.86053 17.3058 1.86072 17.28 1.8609 17.2535C1.87756 15.2318 2.72699 13.3388 4.10156 11.875C4.12079 11.8544 4.14001 11.8339 4.15981 11.8127C4.98114 10.9418 6.05121 10.2313 7.1875 9.84371C7.07082 9.71925 6.94911 9.61348 6.81397 9.50924C5.90785 8.78703 5.33182 7.80681 5.07813 6.67965C5.06906 6.64234 5.06 6.60502 5.05066 6.56658C4.78079 5.3117 5.08614 3.99083 5.73486 2.90371C6.48601 1.75821 7.60593 0.966554 8.94531 0.664023C9.74415 0.511661 10.5826 0.523839 11.3672 0.742148ZM7.5 2.85152C7.46591 2.88294 7.43182 2.91437 7.3967 2.94674C6.75758 3.55998 6.29889 4.44031 6.27976 5.33886C6.26007 6.51894 6.58477 7.46412 7.41699 8.3276C8.11225 9.00386 9.03594 9.35785 10 9.37496C11.0836 9.35582 12.0458 8.89021 12.7945 8.11474C13.5337 7.29222 13.7486 6.32025 13.7178 5.24176C13.664 4.2604 13.1037 3.41789 12.4072 2.76363C11.0057 1.56373 8.84782 1.59892 7.5 2.85152Z" fill="#BABABA"/>
<path d="M14.9219 11.2502C15.1028 11.3342 15.2391 11.4527 15.3125 11.6408C15.3343 11.8249 15.3307 12.0084 15.3278 12.1935C15.3275 12.2474 15.3272 12.3014 15.3271 12.3554C15.3265 12.4968 15.325 12.6382 15.3232 12.7796C15.3216 12.9241 15.3209 13.0687 15.3201 13.2132C15.3185 13.4964 15.3158 13.7795 15.3125 14.0627C15.3423 14.0623 15.3721 14.062 15.4029 14.0616C15.6845 14.0585 15.9661 14.0561 16.2477 14.0546C16.3924 14.0538 16.5372 14.0527 16.682 14.0509C16.8218 14.0492 16.9616 14.0483 17.1014 14.0479C17.1546 14.0476 17.2078 14.047 17.2611 14.0462C17.7769 14.0383 17.7769 14.0383 17.9688 14.2189C18.1105 14.3681 18.1371 14.4878 18.1445 14.6877C18.1351 14.9425 18.0651 15.0657 17.8803 15.2397C17.676 15.3714 17.4152 15.3316 17.1817 15.3279C17.1277 15.3276 17.0738 15.3274 17.0198 15.3273C16.8784 15.3267 16.737 15.3251 16.5956 15.3234C16.4511 15.3218 16.3065 15.3211 16.162 15.3203C15.8788 15.3186 15.5957 15.316 15.3125 15.3127C15.3128 15.3425 15.3132 15.3723 15.3136 15.403C15.3167 15.6846 15.3191 15.9662 15.3206 16.2479C15.3214 16.3926 15.3225 16.5374 15.3243 16.6821C15.326 16.8219 15.3269 16.9617 15.3273 17.1016C15.3276 17.1548 15.3282 17.208 15.329 17.2613C15.3369 17.7771 15.3369 17.7771 15.1562 17.9689C15.0071 18.1107 14.8874 18.1373 14.6875 18.1447C14.4327 18.1352 14.3095 18.0653 14.1355 17.8805C14.0037 17.6762 14.0435 17.4154 14.0472 17.1819C14.0475 17.1279 14.0478 17.074 14.0479 17.02C14.0485 16.8786 14.05 16.7372 14.0518 16.5958C14.0534 16.4512 14.0541 16.3067 14.0549 16.1621C14.0565 15.879 14.0592 15.5958 14.0625 15.3127C14.0327 15.313 14.0029 15.3134 13.9721 15.3137C13.6905 15.3169 13.4089 15.3192 13.1273 15.3208C12.9826 15.3216 12.8378 15.3227 12.693 15.3245C12.5532 15.3262 12.4134 15.3271 12.2736 15.3275C12.2204 15.3278 12.1672 15.3284 12.1139 15.3292C11.5981 15.3371 11.5981 15.3371 11.4062 15.1564C11.2645 15.0072 11.2379 14.8876 11.2305 14.6877C11.2399 14.4328 11.3099 14.3097 11.4947 14.1357C11.699 14.0039 11.9598 14.0437 12.1933 14.0474C12.2473 14.0477 12.3012 14.0479 12.3552 14.0481C12.4966 14.0487 12.638 14.0502 12.7794 14.052C12.9239 14.0536 13.0685 14.0543 13.213 14.0551C13.4962 14.0567 13.7794 14.0594 14.0625 14.0627C14.0622 14.0329 14.0618 14.003 14.0614 13.9723C14.0583 13.6907 14.0559 13.4091 14.0544 13.1275C14.0536 12.9827 14.0525 12.838 14.0507 12.6932C14.049 12.5534 14.0481 12.4136 14.0477 12.2738C14.0474 12.2206 14.0468 12.1673 14.046 12.1141C14.0381 11.5983 14.0381 11.5983 14.2188 11.4064C14.4247 11.2108 14.6527 11.2139 14.9219 11.2502Z" fill="#BABABA"/>
</svg>
