<svg width="20" height="20" viewBox="0 0 20 20" fill="none" xmlns="http://www.w3.org/2000/svg">
<circle cx="10" cy="10" r="2.5" stroke="#BABABA" stroke-width="1.5"/>
<path d="M11.4711 1.79337C11.1649 1.6665 10.7766 1.6665 10 1.6665C9.22343 1.6665 8.83515 1.6665 8.52886 1.79337C8.12048 1.96253 7.79602 2.28698 7.62687 2.69536C7.54965 2.88179 7.51943 3.09859 7.5076 3.41483C7.49022 3.87957 7.25189 4.30975 6.84913 4.54228C6.44637 4.77481 5.95467 4.76612 5.54351 4.5488C5.26371 4.40092 5.06085 4.31869 4.86079 4.29235C4.42254 4.23465 3.97933 4.35341 3.62864 4.6225C3.36563 4.82432 3.17149 5.16059 2.7832 5.83311C2.39492 6.50564 2.20078 6.84191 2.1575 7.17059C2.09981 7.60884 2.21857 8.05205 2.48766 8.40274C2.61048 8.5628 2.7831 8.69736 3.051 8.86569C3.44484 9.11316 3.69825 9.53472 3.69823 9.99986C3.6982 10.4649 3.4448 10.8864 3.051 11.1339C2.78305 11.3022 2.61041 11.4368 2.48758 11.5969C2.21849 11.9476 2.09973 12.3908 2.15742 12.829C2.2007 13.1577 2.39484 13.494 2.78312 14.1665C3.17141 14.839 3.36555 15.1753 3.62856 15.3771C3.97925 15.6462 4.42246 15.765 4.86071 15.7073C5.06076 15.6809 5.26361 15.5987 5.54338 15.4508C5.95457 15.2335 6.44631 15.2248 6.84909 15.4574C7.25188 15.6899 7.49022 16.1201 7.50761 16.5849C7.51943 16.9011 7.54965 17.1179 7.62687 17.3043C7.79602 17.7127 8.12048 18.0371 8.52886 18.2063C8.83515 18.3332 9.22343 18.3332 10 18.3332C10.7766 18.3332 11.1649 18.3332 11.4711 18.2063C11.8795 18.0371 12.204 17.7127 12.3731 17.3043C12.4504 17.1179 12.4806 16.9011 12.4924 16.5848C12.5098 16.1201 12.7481 15.6899 13.1508 15.4574C13.5536 15.2248 14.0454 15.2335 14.4566 15.4508C14.7363 15.5987 14.9392 15.6809 15.1392 15.7072C15.5775 15.7649 16.0207 15.6461 16.3714 15.3771C16.6344 15.1752 16.8285 14.839 17.2168 14.1664C17.6051 13.4939 17.7992 13.1577 17.8425 12.829C17.9002 12.3907 17.7814 11.9475 17.5123 11.5968C17.3895 11.4367 17.2169 11.3022 16.949 11.1338C16.5551 10.8864 16.3017 10.4649 16.3018 9.99976C16.3018 9.53471 16.5552 9.11324 16.949 8.86583C17.2169 8.69746 17.3896 8.56288 17.5124 8.40279C17.7815 8.05211 17.9003 7.60889 17.8426 7.17065C17.7993 6.84196 17.6052 6.5057 17.2169 5.83317C16.8286 5.16064 16.6345 4.82438 16.3714 4.62256C16.0208 4.35347 15.5775 4.23471 15.1393 4.29241C14.9392 4.31875 14.7364 4.40097 14.4566 4.54883C14.0454 4.76616 13.5537 4.77485 13.1509 4.54231C12.7481 4.30976 12.5098 3.87955 12.4924 3.41479C12.4806 3.09857 12.4503 2.88178 12.3731 2.69536C12.204 2.28698 11.8795 1.96253 11.4711 1.79337Z" stroke="#BABABA" stroke-width="1.5"/>
</svg>
