<svg width="20" height="20" viewBox="0 0 20 20" fill="none" xmlns="http://www.w3.org/2000/svg">
<path d="M15.0258 13.8473L18.595 17.4157L17.4158 18.5948L13.8475 15.0257C12.5198 16.09 10.8683 16.6689 9.16667 16.6665C5.02667 16.6665 1.66667 13.3065 1.66667 9.1665C1.66667 5.0265 5.02667 1.6665 9.16667 1.6665C13.3067 1.6665 16.6667 5.0265 16.6667 9.1665C16.6691 10.8682 16.0902 12.5196 15.0258 13.8473ZM13.3542 13.229C14.4115 12.1413 15.0021 10.6835 15 9.1665C15 5.944 12.3892 3.33317 9.16667 3.33317C5.94417 3.33317 3.33333 5.944 3.33333 9.1665C3.33333 12.389 5.94417 14.9998 9.16667 14.9998C10.6836 15.002 12.1414 14.4114 13.2292 13.354L13.3542 13.229Z" fill="#9D9D9D"/>
</svg>
