<svg width="24" height="24" viewBox="0 0 24 24" fill="none" xmlns="http://www.w3.org/2000/svg">
<path d="M8.75933 5.23273C8.96889 5.23274 9.17842 5.23144 9.38797 5.22984C9.55112 5.2288 9.71426 5.22861 9.87741 5.22866C9.95476 5.22855 10.0321 5.22814 10.1095 5.22741C10.2168 5.22649 10.3242 5.22676 10.4315 5.22732C10.4923 5.22719 10.5531 5.22706 10.6158 5.22692C10.8625 5.26164 11.0046 5.37741 11.1731 5.55479C11.2855 5.79689 11.2846 6.01886 11.2493 6.28135C11.1477 6.5001 11.0034 6.65422 10.7805 6.7501C10.5964 6.78044 10.4131 6.78063 10.2268 6.78232C10.1694 6.78363 10.112 6.78493 10.0528 6.78627C9.88246 6.79012 9.71208 6.79276 9.54169 6.7952C9.16205 6.80078 8.78243 6.80783 8.40282 6.81487C8.25615 6.81741 8.10949 6.81942 7.96282 6.82136C6.3248 6.83378 6.3248 6.83378 4.7805 7.3126C4.74884 7.32716 4.71718 7.34172 4.68456 7.35673C4.34619 7.54762 4.19423 7.99674 4.07573 8.34641C3.85784 9.15446 3.8386 10.0147 3.82652 10.8462C3.82541 10.9154 3.82429 10.9845 3.82316 11.0537C3.81964 11.2774 3.81664 11.501 3.81371 11.7247C3.81293 11.7821 3.81293 11.7821 3.81214 11.8407C3.79667 12.9891 3.79325 14.137 3.80938 15.2855C3.81076 15.3854 3.81199 15.4853 3.8132 15.5852C3.75546 17.6234 3.75546 17.6234 4.48717 19.4582C5.37997 20.3269 7.19821 20.1694 8.34886 20.1856C8.4569 20.1874 8.56493 20.1892 8.67297 20.1909C9.56306 20.2049 10.4528 20.2129 11.343 20.2032C11.3905 20.2027 11.438 20.2022 11.487 20.2017C11.8121 20.198 12.1371 20.1935 12.4621 20.1883C12.5693 20.1865 12.6765 20.185 12.7837 20.1835C13.3278 20.1757 13.8693 20.1593 14.4117 20.1128C14.4545 20.1091 14.4973 20.1054 14.5413 20.1017C15.2327 20.0371 16.032 19.9446 16.5432 19.4269C17.4105 18.3127 17.1708 16.3469 17.1797 15.0097C17.1811 14.7927 17.183 14.5758 17.1853 14.3588C17.1862 14.2589 17.1866 14.159 17.187 14.059C17.1955 13.2359 17.1955 13.2359 17.4075 12.964C17.5976 12.7784 17.7281 12.7359 17.9934 12.7325C18.2375 12.7373 18.3792 12.7642 18.5618 12.9376C18.7313 13.1521 18.7726 13.2914 18.772 13.5635C18.7722 13.5969 18.7724 13.6302 18.7726 13.6646C18.7729 13.7746 18.7719 13.8846 18.7709 13.9947C18.7707 14.0724 18.7707 14.1501 18.7707 14.2278C18.7706 14.3911 18.7698 14.5545 18.7685 14.7178C18.767 14.9235 18.7666 15.1292 18.7667 15.3349C18.7664 19.4295 18.7664 19.4295 17.5305 20.672C17.5062 20.6979 17.4819 20.7238 17.4569 20.7505C16.2405 21.9318 13.9388 21.7654 12.3936 21.7627C12.2125 21.7624 12.0315 21.7627 11.8504 21.7628C11.5468 21.763 11.2431 21.7628 10.9395 21.7623C10.5919 21.7618 10.2443 21.762 9.89678 21.7625C9.59459 21.7629 9.2924 21.763 8.99021 21.7627C8.81138 21.7626 8.63256 21.7626 8.45373 21.7629C6.33464 21.7661 6.33464 21.7661 5.33128 21.548C5.28273 21.5377 5.23417 21.5275 5.18414 21.517C4.61282 21.3919 4.13598 21.1997 3.6555 20.8595C3.58299 20.8087 3.58299 20.8087 3.50902 20.7569C2.62386 19.9687 2.38319 18.7035 2.29613 17.5782C2.29228 17.5287 2.28843 17.4792 2.28447 17.4282C2.25459 17.0147 2.24229 16.604 2.24244 16.1892C2.2423 16.124 2.24214 16.0587 2.24197 15.9935C2.24156 15.8184 2.24144 15.6434 2.24141 15.4684C2.24138 15.3583 2.24128 15.2482 2.24115 15.1381C2.24072 14.7521 2.24053 14.366 2.24057 13.9799C2.24059 13.6234 2.2401 13.2669 2.23936 12.9104C2.23874 12.6016 2.2385 12.2928 2.23853 11.9841C2.23854 11.8008 2.23841 11.6176 2.23791 11.4344C2.2288 7.87957 2.2288 7.87957 3.13988 6.65635C3.16665 6.61991 3.19341 6.58348 3.22099 6.54594C3.93527 5.66108 5.12626 5.43036 6.19543 5.31595C7.04913 5.23579 7.90261 5.23252 8.75933 5.23273Z" fill="#BABABA"/>
<path d="M18.7441 2.23254C18.7914 2.23121 18.8386 2.22989 18.8873 2.22852C19.1693 2.27084 19.3625 2.47583 19.5581 2.67108C19.5808 2.69367 19.6036 2.71625 19.627 2.73952C19.7014 2.81346 19.7754 2.88773 19.8494 2.96204C19.9013 3.01388 19.9532 3.06571 20.0051 3.11753C20.1135 3.22581 20.2218 3.33426 20.3299 3.44283C20.4684 3.58185 20.6073 3.72045 20.7464 3.85893C20.8535 3.96572 20.9604 4.07274 21.0672 4.17983C21.1184 4.23103 21.1696 4.28217 21.2209 4.33323C21.2924 4.40456 21.3637 4.4762 21.4349 4.54791C21.4755 4.58857 21.5161 4.62922 21.5579 4.67111C21.7258 4.85937 21.7644 4.99335 21.7676 5.24426C21.7689 5.29151 21.7702 5.33877 21.7716 5.38745C21.7208 5.72598 21.4282 5.96021 21.196 6.19105C21.1402 6.24701 21.1402 6.24701 21.0834 6.3041C20.9589 6.42891 20.8342 6.55337 20.7094 6.67784C20.6201 6.7673 20.5308 6.85678 20.4415 6.94629C20.2242 7.16399 20.0066 7.38144 19.789 7.5988C19.6122 7.77543 19.4354 7.95215 19.2587 8.12894C19.2336 8.15411 19.2084 8.17928 19.1825 8.20522C19.1314 8.25636 19.0803 8.3075 19.0292 8.35864C18.5501 8.83792 18.0708 9.31692 17.5914 9.79581C17.18 10.2068 16.7688 10.6181 16.3579 11.0295C15.8805 11.5073 15.403 11.985 14.9253 12.4625C14.8744 12.5134 14.8234 12.5643 14.7725 12.6151C14.7349 12.6527 14.7349 12.6527 14.6966 12.691C14.52 12.8676 14.3434 13.0442 14.167 13.2209C13.952 13.4362 13.7369 13.6512 13.5215 13.8661C13.4116 13.9757 13.3018 14.0855 13.1922 14.1953C13.0734 14.3144 12.9544 14.4331 12.8353 14.5518C12.7832 14.6041 12.7832 14.6041 12.7301 14.6576C12.6981 14.6893 12.6662 14.721 12.6333 14.7536C12.6059 14.781 12.5784 14.8085 12.5501 14.8367C12.3748 14.9868 12.2341 15.0121 12.0062 15.0137C11.9509 15.0143 11.8955 15.0149 11.8384 15.0156C11.7787 15.0157 11.7191 15.0158 11.6576 15.0159C11.5961 15.0162 11.5346 15.0165 11.4712 15.0168C11.3411 15.0174 11.211 15.0175 11.0809 15.0175C10.9147 15.0175 10.7485 15.0188 10.5822 15.0204C10.4231 15.0217 10.264 15.0216 10.1048 15.0217C10.0156 15.0227 10.0156 15.0227 9.92461 15.0238C9.40087 15.0211 9.40087 15.0211 9.18749 14.8126C8.9427 14.5557 8.97204 14.2709 8.97344 13.9359C8.97315 13.8781 8.97286 13.8203 8.97256 13.7608C8.97223 13.6386 8.97238 13.5165 8.97297 13.3944C8.97362 13.2084 8.97203 13.0226 8.97024 12.8367C8.97019 12.7178 8.97028 12.5988 8.97051 12.4799C8.96989 12.4247 8.96927 12.3696 8.96863 12.3128C8.96922 12.2602 8.9698 12.2077 8.97041 12.1535C8.97045 12.1079 8.9705 12.0624 8.97054 12.0154C9.05078 11.5906 9.30421 11.2867 9.60474 10.9916C9.64175 10.9543 9.67877 10.917 9.7169 10.8786C9.84021 10.7547 9.96433 10.6316 10.0885 10.5085C10.1774 10.4195 10.2662 10.3305 10.3551 10.2414C10.5708 10.0252 10.7871 9.80961 11.0036 9.59423C11.2559 9.3433 11.5075 9.09174 11.7591 8.84016C12.2079 8.39139 12.6573 7.94318 13.107 7.49529C13.5433 7.06074 13.9792 6.6258 14.4147 6.19044C14.4416 6.16359 14.4684 6.13674 14.4961 6.10908C14.5229 6.08228 14.5497 6.05548 14.5773 6.02787C14.6313 5.97391 14.6853 5.91994 14.7393 5.86598C14.7659 5.83937 14.7925 5.81276 14.82 5.78534C15.2353 5.3702 15.6509 4.95541 16.0666 4.54066C16.2172 4.39037 16.3678 4.24003 16.5183 4.08965C16.7569 3.85129 16.9957 3.61307 17.2347 3.37517C17.3439 3.26648 17.4531 3.15769 17.562 3.04874C17.6801 2.93076 17.7984 2.81307 17.9168 2.69545C17.9686 2.64353 17.9686 2.64353 18.0213 2.59057C18.0531 2.55916 18.0848 2.52775 18.1175 2.49539C18.1448 2.46819 18.1721 2.441 18.2002 2.41299C18.3738 2.26495 18.5184 2.23542 18.7441 2.23254ZM18.5935 4.22409C18.5481 4.26947 18.503 4.31512 18.4581 4.36096C18.4224 4.39686 18.4224 4.39686 18.386 4.43348C18.3098 4.51016 18.234 4.58717 18.1582 4.66418C18.1067 4.71615 18.0552 4.76809 18.0037 4.82001C17.8772 4.94751 17.751 5.0753 17.625 5.20325C17.6982 5.37978 17.8081 5.49089 17.9432 5.62439C17.9649 5.64597 17.9867 5.66756 18.009 5.6898C18.0781 5.75831 18.1474 5.82648 18.2168 5.89465C18.2638 5.9412 18.3108 5.98777 18.3578 6.03436C18.4726 6.1482 18.5878 6.26174 18.7031 6.37512C18.8796 6.30186 18.9908 6.19201 19.1243 6.05688C19.1458 6.03517 19.1674 6.01345 19.1897 5.99108C19.2582 5.92204 19.3264 5.85269 19.3945 5.78333C19.4411 5.73631 19.4876 5.68931 19.5342 5.64233C19.6481 5.52747 19.7616 5.41231 19.875 5.297C19.8018 5.12178 19.6934 5.00954 19.5601 4.87585C19.5164 4.83205 19.4727 4.78824 19.4277 4.7431C19.4049 4.72056 19.3822 4.69801 19.3587 4.67478C19.289 4.60549 19.2197 4.53572 19.1504 4.46588C19.1068 4.42232 19.0631 4.37875 19.0181 4.33386C18.9578 4.27379 18.9578 4.27379 18.8964 4.21251C18.7541 4.0876 18.7342 4.09709 18.5935 4.22409ZM16.2158 6.59324C16.1914 6.61672 16.1671 6.64021 16.1419 6.6644C16.0597 6.7437 15.9779 6.82334 15.896 6.903C15.8373 6.95977 15.7787 7.01651 15.72 7.07325C15.1827 7.59353 14.6493 8.11779 14.1168 8.64298C13.7235 9.03082 13.3284 9.41665 12.9308 9.80007C12.651 10.0701 12.3736 10.3424 12.0978 10.6164C11.9331 10.7798 11.7677 10.942 11.5996 11.1019C10.7643 11.838 10.7643 11.838 10.4123 12.8434C10.4214 13.0675 10.4472 13.2821 10.5 13.5001C10.9037 13.5982 11.3763 13.6597 11.7564 13.4545C12.2251 13.1454 12.6089 12.7026 12.9928 12.298C13.1544 12.1291 13.3193 11.9635 13.4839 11.7975C13.7943 11.4835 14.1015 11.1667 14.4077 10.8487C14.7568 10.4865 15.1092 10.1276 15.462 9.76896C16.1868 9.03196 16.9073 8.29089 17.625 7.547C17.5439 7.37403 17.4455 7.26171 17.3101 7.12585C17.2664 7.08205 17.2227 7.03824 17.1777 6.9931C17.1549 6.97056 17.1322 6.94801 17.1087 6.92478C17.039 6.85549 16.9697 6.78572 16.9004 6.71588C16.8568 6.67232 16.8131 6.62875 16.7681 6.58386C16.7279 6.54382 16.6878 6.50377 16.6464 6.46251C16.4511 6.29104 16.3772 6.43714 16.2158 6.59324Z" fill="#BABABA"/>
</svg>
